<svg width="264" height="56" viewBox="0 0 264 56" fill="none" xmlns="http://www.w3.org/2000/svg">
<path d="M13.008 45.432C10.992 45.432 9.184 45.096 7.584 44.424C5.984 43.72 4.72 42.76 3.792 41.544C2.864 40.296 2.352 38.872 2.256 37.272H6.768C6.896 38.584 7.504 39.656 8.592 40.488C9.712 41.32 11.168 41.736 12.96 41.736C14.624 41.736 15.936 41.368 16.896 40.632C17.856 39.896 18.336 38.968 18.336 37.848C18.336 36.696 17.824 35.848 16.8 35.304C15.776 34.728 14.192 34.168 12.048 33.624C10.096 33.112 8.496 32.6 7.248 32.088C6.032 31.544 4.976 30.76 4.08 29.736C3.216 28.68 2.784 27.304 2.784 25.608C2.784 24.264 3.184 23.032 3.984 21.912C4.784 20.792 5.92 19.912 7.392 19.272C8.864 18.6 10.544 18.264 12.432 18.264C15.344 18.264 17.696 19 19.488 20.472C21.28 21.944 22.24 23.96 22.368 26.52H18C17.904 25.144 17.344 24.04 16.32 23.208C15.328 22.376 13.984 21.96 12.288 21.96C10.72 21.96 9.472 22.296 8.544 22.968C7.616 23.64 7.152 24.52 7.152 25.608C7.152 26.472 7.424 27.192 7.968 27.768C8.544 28.312 9.248 28.76 10.08 29.112C10.944 29.432 12.128 29.8 13.632 30.216C15.52 30.728 17.056 31.24 18.24 31.752C19.424 32.232 20.432 32.968 21.264 33.96C22.128 34.952 22.576 36.248 22.608 37.848C22.608 39.288 22.208 40.584 21.408 41.736C20.608 42.888 19.472 43.8 18 44.472C16.56 45.112 14.896 45.432 13.008 45.432ZM60.4061 18.216C62.4541 18.216 64.2781 18.648 65.8781 19.512C67.4781 20.344 68.7421 21.608 69.6701 23.304C70.5981 25 71.0621 27.064 71.0621 29.496V45H66.7421V30.12C66.7421 27.496 66.0861 25.496 64.7741 24.12C63.4941 22.712 61.7501 22.008 59.5421 22.008C57.2701 22.008 55.4621 22.744 54.1181 24.216C52.7741 25.656 52.1021 27.752 52.1021 30.504V45H47.7821V30.12C47.7821 27.496 47.1261 25.496 45.8141 24.12C44.5341 22.712 42.7901 22.008 40.5821 22.008C38.3101 22.008 36.5021 22.744 35.1581 24.216C33.8141 25.656 33.1421 27.752 33.1421 30.504V45H28.7741V18.696H33.1421V22.488C34.0061 21.112 35.1581 20.056 36.5981 19.32C38.0701 18.584 39.6861 18.216 41.4461 18.216C43.6541 18.216 45.6061 18.712 47.3021 19.704C48.9981 20.696 50.2621 22.152 51.0941 24.072C51.8301 22.216 53.0461 20.776 54.7421 19.752C56.4381 18.728 58.3261 18.216 60.4061 18.216ZM76.5953 31.752C76.5953 29.064 77.1393 26.712 78.2273 24.696C79.3153 22.648 80.8033 21.064 82.6913 19.944C84.6113 18.824 86.7393 18.264 89.0753 18.264C91.3793 18.264 93.3793 18.76 95.0753 19.752C96.7713 20.744 98.0353 21.992 98.8673 23.496V18.696H103.283V45H98.8673V40.104C98.0033 41.64 96.7073 42.92 94.9793 43.944C93.2833 44.936 91.2993 45.432 89.0273 45.432C86.6913 45.432 84.5793 44.856 82.6913 43.704C80.8033 42.552 79.3153 40.936 78.2273 38.856C77.1393 36.776 76.5953 34.408 76.5953 31.752ZM98.8673 31.8C98.8673 29.816 98.4673 28.088 97.6673 26.616C96.8673 25.144 95.7793 24.024 94.4033 23.256C93.0593 22.456 91.5713 22.056 89.9393 22.056C88.3073 22.056 86.8193 22.44 85.4753 23.208C84.1313 23.976 83.0593 25.096 82.2593 26.568C81.4593 28.04 81.0593 29.768 81.0593 31.752C81.0593 33.768 81.4593 35.528 82.2593 37.032C83.0593 38.504 84.1313 39.64 85.4753 40.44C86.8193 41.208 88.3073 41.592 89.9393 41.592C91.5713 41.592 93.0593 41.208 94.4033 40.44C95.7793 39.64 96.8673 38.504 97.6673 37.032C98.4673 35.528 98.8673 33.784 98.8673 31.8ZM115.033 22.968C115.801 21.464 116.889 20.296 118.297 19.464C119.737 18.632 121.481 18.216 123.529 18.216V22.728H122.377C117.481 22.728 115.033 25.384 115.033 30.696V45H110.665V18.696H115.033V22.968ZM133.899 22.296V37.8C133.899 39.08 134.171 39.992 134.715 40.536C135.259 41.048 136.203 41.304 137.547 41.304H140.763V45H136.827C134.395 45 132.571 44.44 131.355 43.32C130.139 42.2 129.531 40.36 129.531 37.8V22.296H126.123V18.696H129.531V12.072H133.899V18.696H140.763V22.296H133.899ZM170.324 45.432C167.86 45.432 165.62 44.872 163.604 43.752C161.62 42.632 160.052 41.048 158.9 39C157.78 36.92 157.22 34.52 157.22 31.8C157.22 29.112 157.796 26.744 158.948 24.696C160.132 22.616 161.732 21.032 163.748 19.944C165.764 18.824 168.02 18.264 170.516 18.264C173.012 18.264 175.268 18.824 177.284 19.944C179.3 21.032 180.884 22.6 182.036 24.648C183.22 26.696 183.812 29.08 183.812 31.8C183.812 34.52 183.204 36.92 181.988 39C180.804 41.048 179.188 42.632 177.14 43.752C175.092 44.872 172.82 45.432 170.324 45.432ZM170.324 41.592C171.892 41.592 173.364 41.224 174.74 40.488C176.116 39.752 177.22 38.648 178.052 37.176C178.916 35.704 179.348 33.912 179.348 31.8C179.348 29.688 178.932 27.896 178.1 26.424C177.268 24.952 176.18 23.864 174.836 23.16C173.492 22.424 172.036 22.056 170.468 22.056C168.868 22.056 167.396 22.424 166.052 23.16C164.74 23.864 163.684 24.952 162.884 26.424C162.084 27.896 161.684 29.688 161.684 31.8C161.684 33.944 162.068 35.752 162.836 37.224C163.636 38.696 164.692 39.8 166.004 40.536C167.316 41.24 168.756 41.592 170.324 41.592ZM202.371 18.216C205.571 18.216 208.163 19.192 210.147 21.144C212.131 23.064 213.123 25.848 213.123 29.496V45H208.803V30.12C208.803 27.496 208.147 25.496 206.835 24.12C205.523 22.712 203.731 22.008 201.459 22.008C199.155 22.008 197.315 22.728 195.939 24.168C194.595 25.608 193.923 27.704 193.923 30.456V45H189.555V18.696H193.923V22.44C194.787 21.096 195.955 20.056 197.427 19.32C198.931 18.584 200.579 18.216 202.371 18.216ZM244.259 30.84C244.259 31.672 244.211 32.552 244.115 33.48H223.091C223.251 36.072 224.131 38.104 225.731 39.576C227.363 41.016 229.331 41.736 231.635 41.736C233.523 41.736 235.091 41.304 236.339 40.44C237.619 39.544 238.515 38.36 239.027 36.888H243.731C243.027 39.416 241.619 41.48 239.507 43.08C237.395 44.648 234.771 45.432 231.635 45.432C229.139 45.432 226.899 44.872 224.915 43.752C222.963 42.632 221.427 41.048 220.307 39C219.187 36.92 218.627 34.52 218.627 31.8C218.627 29.08 219.171 26.696 220.259 24.648C221.347 22.6 222.867 21.032 224.819 19.944C226.803 18.824 229.075 18.264 231.635 18.264C234.131 18.264 236.339 18.808 238.259 19.896C240.179 20.984 241.651 22.488 242.675 24.408C243.731 26.296 244.259 28.44 244.259 30.84ZM239.747 29.928C239.747 28.264 239.379 26.84 238.643 25.656C237.907 24.44 236.899 23.528 235.619 22.92C234.371 22.28 232.979 21.96 231.443 21.96C229.235 21.96 227.347 22.664 225.779 24.072C224.243 25.48 223.363 27.432 223.139 29.928H239.747Z" fill="white"/>
</svg>

