<svg width="34" height="34" viewBox="0 0 34 34" fill="none" xmlns="http://www.w3.org/2000/svg">
<g clip-path="url(#clip0_250_64)">
<path d="M8.22949 6.40625H25.6024V27.4549H8.22949V6.40625Z" fill="white"/>
<path d="M17.0177 0C7.62154 0 0 7.62497 0 16.9965C0 26.3963 7.62154 34 17.0177 34C26.3785 34 34 26.3963 34 16.9965C34 7.62497 26.3785 0 17.0177 0ZM19.2165 27.0992V9.60576H17.654C14.7835 9.60576 13.2776 11.0612 13.2776 13.2124C13.2776 15.6617 14.3169 16.7906 16.4662 18.246L18.2337 19.4458L13.1291 27.0992H9.3325L13.9139 20.2552C11.2768 18.3667 9.79913 16.5279 9.79913 13.4183C9.79913 9.51347 12.4928 6.86532 17.6257 6.86532H22.7232V27.0992H19.2165Z" fill="#FC3F1D"/>
</g>
<defs>
<clipPath id="clip0_250_64">
<rect width="34" height="34" fill="white"/>
</clipPath>
</defs>
</svg>
